<svg id="Layer_1" data-name="Layer 1" xmlns="http://www.w3.org/2000/svg" viewBox="0 0 332.4 373.83"><title>C-Sharp logo - Brandlogos.net</title><path d="M550.2,306.87a32.42,32.42,0,0,0-4.1-16.59,31.3,31.3,0,0,0-12-11.67q-66.36-38.25-132.82-76.49c-12-6.86-23.45-6.66-35.33.31-17.61,10.34-105.88,60.93-132.1,76.19C223,284.86,217.8,294.48,217.8,307V461a33.58,33.58,0,0,0,3.89,16.28,32.11,32.11,0,0,0,12.19,12.08c26.32,15.26,114.48,65.74,132.1,76.19,11.88,7,23.45,7.27,35.33.31q66.36-38.4,132.82-76.49a30.73,30.73,0,0,0,12.19-12.08A33.58,33.58,0,0,0,550.2,461Z" transform="translate(-217.8 -197.08)" style="fill:#9a4993"/><path d="M384.41,383.37l-162.92,93.8a32.11,32.11,0,0,0,12.19,12.08C260,504.51,348.16,555,365.77,565.44c11.88,7,23.45,7.27,35.33.31q66.36-38.4,132.82-76.49a30.73,30.73,0,0,0,12.19-12.08Z" transform="translate(-217.8 -197.08)" style="fill:#6a1577"/><path d="M336.18,411.12a54.93,54.93,0,0,0,95.64-.31l-47.41-27.44Z" transform="translate(-217.8 -197.08)" style="fill:#6a1577"/><path d="M550.2,306.87a32.42,32.42,0,0,0-4.1-16.59L384.41,383.37l161.9,93.8a33.58,33.58,0,0,0,3.89-16.28Z" transform="translate(-217.8 -197.08)" style="fill:#813084"/><path d="M431.82,410.81a55,55,0,1,1-.41-54.48l48-27.65a110.29,110.29,0,1,0,.41,109.88Zm60.72-53h-11v52.94h11Zm24.27,0h-11v52.94h11Z" transform="translate(-217.8 -197.08)" style="fill:#fff"/><path d="M525.72,366.68H472.78v11h52.94Zm0,24.17H472.78v11h52.94Z" transform="translate(-217.8 -197.08)" style="fill:#fff"/></svg>